<svg id="Layer_1" data-name="Layer 1" xmlns="http://www.w3.org/2000/svg" viewBox="0 0 638.05 105.13"><path d="M176.48,298.57l-23.84-49.9h-.18l-2.55,42.1c-.29,4.77,3.29,5.8,7.5,6v1.82H137.92v-1.82c6.83,0,7.67-1.49,8.13-10l2.25-36.38c.38-6.18.19-7.86-5.61-8.24v-1.67h14.16l22.53,47.14,22.44-47.14h13.74v1.67c-4.58.38-6.36.47-6.17,3.65l3,42.38c.56,8.6,1.31,8.6,8.13,8.6v1.82h-24v-1.82c4.39,0,8.69-1.21,8.32-6.17l-2.71-41.91h-.19l-23.28,49.9Z" transform="translate(-11 -194.89)" fill="#231f20"/><path d="M259.64,272.77l6.26,17a10.31,10.31,0,0,1,1,3.83c0,2.61-2,3.17-7.29,3.17h-2.43v1.81h25.71v-1.81c-4.67,0-6.64-.93-8.51-5.88l-19.54-51.76h-8.13l.84,2-17,46.35c-3,8.12-4,9.15-10.09,9.24v1.81h21.6v-1.81h-1.5c-5.14,0-7.57-.93-7.57-3.45,0-1.31,1.21-4.11,1.87-5.88l5.42-14.65Zm-1.59-4.16H241.88l8-21.64Z" transform="translate(-11 -194.89)" fill="#231f20"/><path d="M299.66,274.08c1.51.1,2.73.19,4.8.19,2.53,0,4-.09,6.39-.19a70.08,70.08,0,0,1,9.68,8.28l6.14,6.13c8.28,8.3,12.49,11.84,28.85,11.1v-1.68c-7.2-.47-12.9-3.91-18.42-9.4l-7.37-7.35a114.46,114.46,0,0,0-10.61-9.73c7.65-2.24,12.37-8.13,12.37-15.13,0-9.53-7.69-16.67-25.06-16.67-6.11,0-8,.09-11.78.28s-9.52.55-11.76.55v1.82H285c5.42,0,7,1.68,7,7.47V289c0,6.23-2,7.71-7.48,7.71h-1.59v1.82h26.45v-1.82h-2.16c-5.26,0-7.52-1.39-7.52-7Zm0-32.45a38.15,38.15,0,0,1,4.7-.19c14.47,0,18.42,6.73,18.42,15.42,0,11.21-6.86,15.6-17.29,15.6a39.62,39.62,0,0,1-5.83-.19Z" transform="translate(-11 -194.89)" fill="#231f20"/><path d="M387.54,249c3-5.13,1.21-6.71-4.76-6.71v-1.82h21.07v1.82c-6.34.46-9,3-11.65,7.37l-15.49,26.21v14c0,4.94,1.77,6.9,7.46,6.9h1.22v1.81H359.66v-1.81h1.8c5.84,0,7.54-2.14,7.54-6.71V276.89L352.28,251c-4.56-7.18-6.71-8.49-12.76-8.67v-1.82h24.86v1.82c-7.35,0-7.81,1.77-5,6.06l15,23Z" transform="translate(-11 -194.89)" fill="#231f20"/><path d="M444.85,298.57H403.11v-1.82h3.09c4.3,0,5.89-1.4,5.89-6.15V249.28c0-4.95-1.5-7-7.39-7h-1.31v-1.81h27.53v1.81h-3.46c-6.08,0-7.67.65-7.67,6.44v43c0,2.53,1,3.46,3.74,3.46h13.75c5.51,0,7.2-2.15,13.09-10.32h1.68Z" transform="translate(-11 -194.89)" fill="#231f20"/><path d="M489.05,272.77l6.27,17a10.51,10.51,0,0,1,1,3.83c0,2.61-2,3.17-7.3,3.17h-2.43v1.81h25.72v-1.81c-4.68,0-6.64-.93-8.51-5.88l-19.54-51.76h-8.14l.84,2-17,46.35c-3,8.12-4,9.15-10.1,9.24v1.81h21.6v-1.81H470c-5.14,0-7.58-.93-7.58-3.45,0-1.31,1.22-4.11,1.87-5.88l5.43-14.65Zm-1.58-4.16H471.29L479.24,247Z" transform="translate(-11 -194.89)" fill="#231f20"/><path d="M573,299.25l-48.33-50.63v40c0,6.71,1.49,8.11,9.42,8.11v1.81H512.4v-1.81h.37c5.8,0,7.67-2,7.67-6.25V244.61a13.73,13.73,0,0,0-7.86-2.33v-1.82h14.66l44,45.9V249.19c0-5.7-1.68-6.73-9.15-6.91v-1.82h21.84v1.82c-7,0-8.5,1.21-8.5,4.85v52.12Z" transform="translate(-11 -194.89)" fill="#231f20"/><path d="M593.6,289.94c0,5.41-2.33,6.81-7.38,6.81h-1.59v1.82h29.88c23.68,0,34.54-16.93,34.54-31,0-15.39-10.86-27.93-35.57-27.93-4.87,0-10.58.09-15.7.28s-9.69.37-13.15.56v1.66h1.87c5.51,0,7.1,1.49,7.1,7.57Zm7.71-48.13c1.12-.09,3.65-.37,7.49-.37,13.1,0,19.75,3.26,24.05,7.55,5.53,5.51,7.49,13.16,7.49,20.06,0,9.61-4.3,16.79-7.77,20.15-5.8,5.78-11,7.55-23.59,7.55-7.39,0-7.67-1.3-7.67-5.13Z" transform="translate(-11 -194.89)" fill="#231f20"/><path d="M176.83,201.6v.83c-3,0-4.1,1.27-4.1,4.15v12.16c0,5.59-3.57,11.59-13.34,11.59-8.6,0-13-4.92-13-11.36V205.81c0-2.88-.81-3.33-3.88-3.38v-.83h11.6v.83h-.41c-2.48,0-3.56.68-3.56,3.29v12.53c0,6.08,3.56,9.73,10.27,9.73,5.09,0,10.27-2.12,10.27-9.78V207.71c0-4.33-.67-5.1-4.41-5.28v-.83Z" transform="translate(-11 -194.89)" fill="#231f20"/><path d="M220.83,230l-23.3-24.48v19.38c0,3.25.72,3.93,4.54,3.93v.83H191.64v-.83h.18c2.8,0,3.7-.95,3.7-3V203.56a6.67,6.67,0,0,0-3.79-1.13v-.84h7.06L220,223.76v-18c0-2.76-.81-3.26-4.41-3.35v-.84h10.52v.84c-3.38,0-4.1.59-4.1,2.35V230Z" transform="translate(-11 -194.89)" fill="#231f20"/><path d="M255.2,229.66h-11v-.84c2.8-.14,3.38-.86,3.38-3.89V205.69c0-2.44-.86-3.12-3.38-3.26v-.83h11v.83c-2.84,0-3.84.64-3.84,3.66v19.16c0,2.67.73,3.57,3.84,3.57Z" transform="translate(-11 -194.89)" fill="#231f20"/><path d="M285.43,230.33,275.65,206c-1.13-2.84-1.67-3.52-4.43-3.52v-.84h12.41v.84c-4.15.09-5.14,1-4.28,3.11l8.11,20.19,7.12-18.61a8.78,8.78,0,0,0,.76-2.8c0-1.34-1.12-1.89-4.19-1.89v-.84h10.46v.84c-2.34,0-3.56,1.09-4.64,3.88l-9.29,24Z" transform="translate(-11 -194.89)" fill="#231f20"/><path d="M337,219.5h-.84c-.36-3.22-1.22-3.58-3.08-3.58h-7.65v9.65c0,2.09.77,2.49,2.45,2.49h7c3.14,0,4.09-1.22,5.22-5.13h.81l-.73,6.73h-24v-.84h1.26c3.61,0,4.24-1,4.24-3.71V206.05c0-2.53-.59-3.62-3.61-3.62h-1v-.84h21.68l.36,6.26h-.81c-.59-3.85-1.71-4.66-3.33-4.66h-9.55v11.14h8.11c1.63,0,2.39-.77,2.62-3.4H337Z" transform="translate(-11 -194.89)" fill="#231f20"/><path d="M367.15,217.76c.72,0,1.3.08,2.29.08,1.22,0,1.94,0,3.06-.08a33.06,33.06,0,0,1,4.64,4l3,3c4,4,6.05,5.73,13.95,5.37v-.82c-3.48-.23-6.23-1.9-8.89-4.57l-3.56-3.57a52.47,52.47,0,0,0-5.16-4.68c3.7-1.08,6-3.93,6-7.31,0-4.61-3.75-8-12.08-8-2.93,0-3.83,0-5.69.13s-4.6.29-5.68.29v.83h1c2.62,0,3.38.82,3.38,3.61v19c0,3-.94,3.77-3.6,3.77H359v.84h12.76v-.84h-1c-2.52,0-3.6-.68-3.6-3.4Zm0-15.65a16.57,16.57,0,0,1,2.25-.1c6.93,0,8.82,3.25,8.82,7.46,0,5.42-3.29,7.54-8.28,7.54a20.21,20.21,0,0,1-2.79-.09Z" transform="translate(-11 -194.89)" fill="#231f20"/><path d="M406.27,222.74a7.77,7.77,0,0,0,7.58,6.34c3,0,6.2-1.76,6.2-5.31,0-6.47-14.41-8.45-14.41-16.32,0-3.73,3.4-6.52,8-6.52,3.78,0,4.54,1.13,6.12,1.13.36,0,.53-.09.8-.47h.72l.76,5.73h-.76A7.93,7.93,0,0,0,414,202c-3,0-5,1.71-5,4.23,0,6.38,14.41,8.09,14.41,16.36,0,4.41-3.89,7.72-9.15,7.72-2.47,0-5.61-1.24-6.24-1.24a1,1,0,0,0-.89.58h-.76l-.94-6.92Z" transform="translate(-11 -194.89)" fill="#231f20"/><path d="M455.07,229.66h-11v-.84c2.8-.14,3.39-.86,3.39-3.89V205.69c0-2.44-.86-3.12-3.39-3.26v-.83h11v.83c-2.85,0-3.84.64-3.84,3.66v19.16c0,2.67.72,3.57,3.84,3.57Z" transform="translate(-11 -194.89)" fill="#231f20"/><path d="M487.11,225.52c0,2.44.82,3.3,3.57,3.3h1.67v.84H478.13v-.84h1.67c2.75,0,3.56-.86,3.56-3.3V203.19h-7.85c-1.8,0-2.61,1-3.29,5h-.81l.72-7.28H473a.66.66,0,0,0,.49.54,2.94,2.94,0,0,0,.91.13h21.7c.63,0,1.31-.13,1.4-.67h.86l.72,7.28h-.82c-.67-4-1.48-5-3.29-5h-7.85Z" transform="translate(-11 -194.89)" fill="#231f20"/><path d="M536.41,205.69c1.45-2.49.59-3.26-2.31-3.26v-.84h10.2v.84a6.25,6.25,0,0,0-5.63,3.57l-7.53,12.7v6.77c0,2.4.86,3.35,3.64,3.35h.59v.84H523v-.84h.84c2.76,0,3.56-1,3.56-3.25v-6.38l-8-12.55c-2.22-3.48-3.26-4.12-6.2-4.21v-.84h12v.84c-3.48,0-3.7.86-2.36,2.94L530,216.53Z" transform="translate(-11 -194.89)" fill="#231f20"/><path d="M611.42,214.83c0-8.12-7.33-13.9-15.86-13.9-9.62,0-16.54,6.32-16.54,15.3,0,8.45,7.46,14.09,16.31,14.09s16.09-6.36,16.09-15.49m-4.26,1.5c0,6.41-3.52,12.91-10.88,12.91s-13-6-13-14.41c0-5.41,3.16-12.82,11.11-12.82,7.45,0,12.77,5.92,12.77,14.32" transform="translate(-11 -194.89)" fill="#231f20"/><path d="M641.91,218.86h-.75c-.1-2.63-1-3.44-3.21-3.44h-8.36v9.91c0,2.54.54,3.49,3.93,3.49v.84h-11v-.84c2.8-.18,3.29-.77,3.29-4.44v-17.7c0-2.89-.22-4.2-3.38-4.25v-.83h20.21v5.3h-.75c0-2.63-.95-3.71-3.75-3.71h-8.57v10.63h8.94c1.68,0,2.49-.95,2.63-2.89h.75Z" transform="translate(-11 -194.89)" fill="#231f20"/><rect x="572.64" y="45.5" width="1.07" height="1.74" fill="#231f20"/><path d="M11,247.47a52.56,52.56,0,1,0,52.56-52.56A52.56,52.56,0,0,0,11,247.47" transform="translate(-11 -194.89)" fill="#fff"/><path d="M116.1,246.3c0,.23-.93,1-1.93,1.62l-.08,0a26,26,0,0,1-5.67,2.06,88.73,88.73,0,0,1-8.8,1.75c-3.33.5-7,.89-11,1.24h0c-5.11.46-8.33.65-12.41.86-4.33.18-8.83.27-13.39.27v1.74c0,4.1,0,8,0,11.7.1,20.18.13,20.17.73,32.44a52.56,52.56,0,0,0,52.56-52.55s0-.76,0-1.17" transform="translate(-11 -194.89)" fill="#ffd520"/><polygon points="72.12 99.69 72.12 99.69 72.12 99.69 72.12 99.69" fill="#231f20"/><path d="M62.78,255.88c0,4.11,0,8,0,11.7,8.42,8,8.42,8,11.93,11.5a171.6,171.6,0,0,0,1.44-23.47c0-.58,0-1.16,0-1.74-5.32.21-8.83.27-13.39.27v1.74" transform="translate(-11 -194.89)" fill="#231f20"/><path d="M82.06,288.05c-1.84-3-3.51-4.94-7.32-8.94-1.79,12.8-5,20.67-8.9,20.84l1.18-.06,1.34-.11c5.44-.48,10.12-4.66,13.7-11.73" transform="translate(-11 -194.89)" fill="#231f20"/><path d="M88,266.6c0-.07-3,15.79-5.89,21.45,1.65,3.18,1.72,4.44,1.06,6.53,5.1-3.87,9.31-9.72,12.2-16.95-1.85-3.78-3.12-5.8-7.37-11" transform="translate(-11 -194.89)" fill="#231f20"/><path d="M72.9,299.2c1.15-.2,1.09-.22,3.2-.7l1.26-.36c3.88-1.21,4.56-1.82,5.77-3.61a24.9,24.9,0,0,1-11.3,4.85Z" transform="translate(-11 -194.89)" fill="#231f20"/><path d="M96.26,286.3c7.58-8.58,12.21-20.7,12.19-34.54q0-.87,0-1.74a86.16,86.16,0,0,1-8.8,1.74c0,.59.07,1.18.07,1.76a64.49,64.49,0,0,1-4.3,24.08c1.57,4,1.59,5.69.87,8.7" transform="translate(-11 -194.89)" fill="#231f20"/><path d="M88.58,253c-5.11.46-8.33.65-12.4.86,7.2,7.48,8.73,9.24,11.77,12.73a100.47,100.47,0,0,0,.65-11.78c0-.59,0-1.22,0-1.81" transform="translate(-11 -194.89)" fill="#231f20"/><path d="M52,197.63a30.43,30.43,0,0,1,11.42-2.74A45.88,45.88,0,0,0,52,197.63" transform="translate(-11 -194.89)" fill="#231f20"/><path d="M98.74,251.76c-2.73-.36-5-5-3.82-9.7-3.85,2.66-8.18-2.8-7.55-7.86.34-2.68,2.09-5.06,5.16-4a76.65,76.65,0,0,0-4.63-12.05c-2.72.35-5.7.64-8.86.86,2.81,4.24.06,8.19-3.86,7.56a6,6,0,0,1-4.76-7c-2.3,1.59-7,1-7.47-4.07-.13,10.69-.19,24.36-.17,38.58a271.48,271.48,0,0,0,36.84-2.38h0a4.31,4.31,0,0,1-.88,0" transform="translate(-11 -194.89)" fill="#e13a3e"/><path d="M29.6,262.31c3.91-1.51,8.82,5.24,7.1,9.76-.79,2.08-2.85,2.66-5,1.41a51.35,51.35,0,0,0,4.47,10.73c2.76.38,5.87.71,9.26,1-2.72-3.36-.54-6.11,3.1-5.92,3.12.16,7.25,2.75,6.37,6.3,2.81-1.27,7.56-.23,8.14,3.43-.14-7.88-.24-19.45-.26-33.11v-1.74c-4.44,0-8.93-.16-13.41-.35a172.59,172.59,0,0,1-23.91-2.29h0c4.08,1.38,5.19,7.44,4.14,10.81" transform="translate(-11 -194.89)" fill="#e13a3e"/><path d="M88.45,213.89h.07c.51-.08,1-.16,1.45-.25,3-.55,9.83-2.18,9.83-4.17a29.53,29.53,0,0,1,4.64,6.41,7.85,7.85,0,0,1,.6,1.37,5.45,5.45,0,0,1,.35,1.79c-.09,1.13-.81,1.15-1.56.82l-.24-.1c-2.7-1.22-3.59-3.7-4.11-4.72A49.53,49.53,0,0,1,94,216.81l-.85.18A69.39,69.39,0,0,1,99,229.26c2.65-2.72,6.79,2.33,7,7.2.11,2.86-1.17,5.41-3.79,4.5,2.1,3.87,1.43,9.56-2.55,10.8C99,239,96.8,227.69,88.4,213.91h0" transform="translate(-11 -194.89)" fill="#e13a3e"/><path d="M88.4,213.91h0c-6.7-10.22-12-13.94-18.77-16.62-1.35-.53-5.95-2.34-6.18-2.4l0,.05a9.18,9.18,0,0,0,4.11,2.94c-.14.64,0,1.91,2.18,3.51a7.34,7.34,0,0,0,1,.6c3.41,1.79,4.17.4,4.33-.16l.06,0a34.5,34.5,0,0,1,5.31,4.94c1.29,1.55,2.51,2.9,3.43,4.26-2.11.26-4.91.51-7.68.71a6.21,6.21,0,0,0-4.1-5.59c-3.32-1.24-4.42,2.68-3,5.44-2.64-1.43-5.76-.16-6.2,4a177.38,177.38,0,0,0,25.46-1.64h0" transform="translate(-11 -194.89)" fill="#e13a3e"/><path d="M89.05,204.39a.82.82,0,0,1,0-.37.55.55,0,0,1,.15-.25.6.6,0,0,1,.25-.25c.54-.31,2.12-.47,6.52,2.57a52.11,52.11,0,0,0-27.24-10.93c-1.18-.13-3.36-.22-3.36-.22A18.19,18.19,0,0,1,70.22,196a2.11,2.11,0,0,1,.77.44h0a10.93,10.93,0,0,1,1.88.38,24.87,24.87,0,0,1,3.37,1.3c1.21.57,3,1.86,3,2.57-.27.17-.36.22-1.18,0a68.2,68.2,0,0,1,10.21,9.47c1.81-.35,4.51-.73,5.75-1.15-.08.08-4.11-2.93-5-4.64" transform="translate(-11 -194.89)" fill="#e13a3e"/><path d="M35.62,287.12c-4.51-.82-7.1-1.5-8.82-2.38a1.5,1.5,0,0,0-.45-.17,59.1,59.1,0,0,1-4.79-5.47,55.22,55.22,0,0,1-3.12-4.68,4,4,0,0,1,.58.07c2.36.78,6.05,7.23,6.09,7.3a40.12,40.12,0,0,0,5.66,1.52,48.64,48.64,0,0,1-5.36-10.89c-3.27,1.66-7.46-7-6.13-10.66.27-.74,1.14-2.3,3.36-.62-1.68-3.86-1.22-9.65,2.82-9.64.09,12.77,1.84,23.79,10.16,35.62" transform="translate(-11 -194.89)" fill="#e13a3e"/><path d="M63,289.73c-.46,1.82-3,3.56-6.62,2.09,1.69,2.22.22,4.15-2.75,3.61-2.31-.42-5.05-2.28-5.26-4.13-2.86-.22-5.47-.5-7.79-.82a29,29,0,0,0,7.32,6.21c.31-.13.81-.1,2.38.45,2,.71,3.94,1.65,5.95,2.37l-.43-.06c-1.52-.24-1.89-.32-2.75-.49-3.87-.76-10.61-3-17.39-11.84A178.66,178.66,0,0,0,63,289a6.2,6.2,0,0,1-.08.74" transform="translate(-11 -194.89)" fill="#e13a3e"/><path d="M63.45,194.89A52.82,52.82,0,0,0,11,246.46l0,0c0,.08.28.61,1.39,1.3h0a17.87,17.87,0,0,0,4.9,2c2.67.68,5.47,1.24,8.09,1.69h.05a175.64,175.64,0,0,0,23.91,2.3c4.48.18,9,.35,13.41.34,0-2.69,0-17.95.1-32.69,0-1.91,0-3.9.06-5.89.12-9.6.32-19.38.51-20.67" transform="translate(-11 -194.89)" fill="#ffd520"/><path d="M88.62,293.67c-3,1.67-3.54,1.71-7.54,3.35a27.93,27.93,0,0,1-3.29,1.05c7.08-1.91,16.78-9.85,18.48-11.78a11,11,0,0,1-3.6,4.87c-.58.47-3.08,2-4,2.51" transform="translate(-11 -194.89)" fill="#231f20"/><path d="M17.32,249.8a16.9,16.9,0,0,1-4.9-2A54.88,54.88,0,0,1,39,202.68c-3.63,3.23-5.25,5.16-7.09,9.52a60.09,60.09,0,0,0-14.54,37.6" transform="translate(-11 -194.89)" fill="#231f20"/><path d="M39,202.65c3.86-2.78,6-4.81,12.17-6.27a50.74,50.74,0,0,1,12.28-1.49A52.19,52.19,0,0,0,39,202.65" transform="translate(-11 -194.89)" fill="#231f20"/><path d="M36.2,253c-3.84-.37-7.48-.88-10.74-1.45a72.48,72.48,0,0,1,5.66-26.75c1.33,5.31,2.46,8.17,6.22,14.46A101.18,101.18,0,0,0,36.2,253" transform="translate(-11 -194.89)" fill="#231f20"/><path d="M63,215.56c-.07,5.78-.1,11.73-.12,16.33s0,7.84,0,8.48A163.32,163.32,0,0,1,51.07,227.1c2.54-16.34,7.13-29.25,12.38-32.21-.19,1.56-.39,10.84-.5,20.67" transform="translate(-11 -194.89)" fill="#231f20"/><path d="M44.5,214.93a88.33,88.33,0,0,0-7.13,24.28A102.9,102.9,0,0,0,49,253.78a184,184,0,0,1,2.11-26.71c-3.85-5.24-5.07-7.74-6.58-12.14" transform="translate(-11 -194.89)" fill="#231f20"/><path d="M114.09,248c0,.59,0,1.16,0,1.74,0,18.59-9,34.05-23.24,42.6l-.37.29A52.65,52.65,0,0,0,111,270.1c5.75-11.31,5.12-23.8,5.12-23.8a6,6,0,0,1-2,1.66" transform="translate(-11 -194.89)" fill="#231f20"/><path d="M52,197.63a52.51,52.51,0,0,0-20.16,14.56c-1.52,4.78-1.52,7.45-.75,12.55a58.16,58.16,0,0,1,13.8-20c1.74-3,2.82-4.81,7.11-7.09" transform="translate(-11 -194.89)" fill="#231f20"/><path d="M44.48,215c-.95-4.29-1-6.48.42-10.22,5.48-5,11.81-8.8,18.55-9.86-7.38,2-14.06,9.72-19,20.08" transform="translate(-11 -194.89)" fill="#231f20"/></svg>