<svg xmlns="http://www.w3.org/2000/svg" xmlns:xlink="http://www.w3.org/1999/xlink" width="30" height="30" viewBox="0 0 30 30">
    <defs>
        <path id="a" d="M0 29h28.8V0H0z"/>
        <path id="c" d="M9.591 3.607l-.357.642-.72-.148a4.25 4.25 0 0 0-.863-.089 4.21 4.21 0 0 0-4.183 3.573l-.128.812-.821.032A2.586 2.586 0 0 0 .03 11.021c0 1.45.948 2.421 2.534 2.596 2.295.254 5.14.383 8.456.383 3.473 0 5.47-.049 8.118-.339 2.225-.244 3.662-1.703 3.662-3.716a3.72 3.72 0 0 0-2.217-3.4l-.532-.235-.059-.578A5.543 5.543 0 0 0 14.457.739a5.57 5.57 0 0 0-4.866 2.868"/>
        <linearGradient id="d" x1="6.651%" y1="66.14%" y2="66.14%">
            <stop offset="0%" stop-color="#C2C3C5"/>
            <stop offset="100%" stop-color="#A7A9AC"/>
        </linearGradient>
    </defs>
    <g fill="none" fill-rule="evenodd">
        <g transform="translate(.5 .5)">
            <path fill="#FFCB00" d="M14.212 17.037a7.566 7.566 0 0 1 4.983-3.178c.106-.487.167-.99.167-1.509a7.011 7.011 0 0 0-14.022 0 7.005 7.005 0 0 0 4.052 6.35 6.196 6.196 0 0 1 4.82-1.663z"/>
            <mask id="b" fill="#fff">
                <use xlink:href="#a"/>
            </mask>
            <path fill="#FF9B00" d="M11.351 3.293h2V0h-2zM21.407 13.35H24.7v-2h-3.293zM0 13.35h3.419v-2H0zM19.46 6.653l-1.413-1.414 2.329-2.33 1.414 1.415zM4.324 21.79L2.91 20.376l2.418-2.418 1.414 1.415zM5.24 6.653l-2.33-2.33L4.324 2.91l2.33 2.329z" mask="url(#b)"/>
        </g>
        <g transform="translate(6.5 15.5)">
            <mask id="e" fill="#fff">
                <use xlink:href="#c"/>
            </mask>
            <path fill="url(#d)" d="M9.591 3.607l-.357.642-.72-.148a4.25 4.25 0 0 0-.863-.089 4.21 4.21 0 0 0-4.183 3.573l-.128.812-.821.032A2.586 2.586 0 0 0 .03 11.021c0 1.45.948 2.421 2.534 2.596 2.295.254 5.14.383 8.456.383 3.473 0 5.47-.049 8.118-.339 2.225-.244 3.662-1.703 3.662-3.716a3.72 3.72 0 0 0-2.217-3.4l-.532-.235-.059-.578A5.543 5.543 0 0 0 14.457.739a5.57 5.57 0 0 0-4.866 2.868" mask="url(#e)"/>
        </g>
    </g>
</svg>
