<svg xmlns="http://www.w3.org/2000/svg" width="14" height="14" viewBox="0 0 14 14">
    <g fill="#FFF" fill-rule="evenodd">
        <path d="M2.298.97l.776 1.272.832-.501L3.13.47zM0 4.636l1.503.39.247-.937L.246 3.7zM9.397 3.93l-.488-.835 1.294-.746.489.837zM6.541 0l-.388 1.436.94.25L7.481.25zM.47 8.006l.502.828 1.284-.766-.503-.828z"/>
        <path d="M11.392 12.88c-1.202.13-2.108.153-3.687.153-1.503 0-2.795-.058-3.838-.173-.714-.078-1.123-.493-1.123-1.14 0-.613.483-1.112 1.099-1.136l.4-.016.062-.393a1.88 1.88 0 0 1 1.87-1.585c.129 0 .259.014.386.04l.35.072.174-.311a2.503 2.503 0 0 1 2.183-1.278c1.286 0 2.353.956 2.484 2.225l.029.279.258.114c.599.263.988.854.988 1.504 0 .905-.627 1.536-1.635 1.645M2.885 5.552c0-1.478 1.21-2.68 2.698-2.68 1.489 0 2.7 1.202 2.7 2.68 0 .273-.054.542-.14.805a3.458 3.458 0 0 0-1.73 1.276 2.854 2.854 0 0 0-1.751.425 2.68 2.68 0 0 1-1.777-2.506m9.798 3.42a3.453 3.453 0 0 0-3.415-2.826c-.023 0-.046.008-.07.009.035-.2.058-.4.058-.603 0-2.011-1.646-3.647-3.673-3.647-2.025 0-3.672 1.636-3.672 3.647 0 1.368.782 2.594 1.966 3.215-.2.266-.356.568-.453.899A2.102 2.102 0 0 0 1.77 11.72c0 1.143.78 1.968 1.989 2.1 1.079.119 2.406.179 3.946.179 1.616 0 2.545-.023 3.793-.16C12.995 13.68 14 12.63 14 11.236c0-.94-.508-1.8-1.317-2.263"/>
    </g>
</svg>
